<?xml version="1.0" encoding="UTF-8"?>
<svg data-bbox="4.2 14 377.6 55.5" viewBox="0 0 392.7 89.2" xmlns="http://www.w3.org/2000/svg" data-type="color">
    <g>
        <path d="M108.8 21.2h5.5v18.7L133 21.2h6.9l-16.3 16.3 16.5 24.6h-6.5l-13.9-20.8-5.5 5.5v15.3h-5.5V21.2z" fill="#000000" data-color="1"/>
        <path d="M198.2 21.2h6l19.1 32.3V21.2h5.5v40.9h-6l-19.1-32.3v32.3h-5.5V21.2z" fill="#000000" data-color="1"/>
        <path d="M243.2 21.2h26.3v4.5h-20.8v12.7H268V43h-19.4v14.6h22v4.5h-27.5V21.2z" fill="#000000" data-color="1"/>
        <path d="M285.7 21.2h5.5v18.7l18.7-18.7h6.9l-16.3 16.3L317 62.1h-6.5l-13.9-20.8-5.5 5.5v15.3h-5.5V21.2z" fill="#000000" data-color="1"/>
        <path d="M330.7 24.1c2.2-2.2 5.7-3.3 10.3-3.3 4.9 0 8.7 1.3 11.2 3.8 2.2 2.2 3.3 4.9 3.3 7.9H350c0-1.9-.6-3.5-1.9-4.8-1.4-1.4-3.7-2.2-6.7-2.2-3.3 0-5.7.6-6.9 1.9-1.1 1.1-1.7 2.4-1.7 3.8s.3 2.5 1 3.1c.8.8 2.2 1.6 4.3 2.4 3.7 1.6 7.8 3.4 12.4 5.5 1.3.5 2.5 1.3 3.6 2.4 1.8 1.8 2.6 3.8 2.6 6.2 0 3.2-1.1 5.9-3.3 8.1-2.4 2.4-6.3 3.6-11.7 3.6-5.3 0-9.3-1.4-12.2-4.3-2.1-2.1-3.1-5.1-3.1-9.1h5.5c0 2.9.6 4.9 1.9 6.2 1.8 1.8 4.5 2.6 8.1 2.6 3.3 0 5.8-.8 7.4-2.4 1.3-1.3 1.9-2.5 1.9-3.8 0-1.4-.5-2.6-1.4-3.6-.8-.8-2.1-1.6-3.8-2.4-1.6-.8-3.7-1.8-6.2-2.9-2.9-1.3-5.2-2.3-6.9-3.1-1.3-.5-2.4-1.2-3.3-2.2-1.4-1.4-2.2-3.3-2.2-5.7 0-2.8 1.1-5.5 3.3-7.7z" fill="#000000" data-color="1"/>
        <path d="M371 21.2h10.8v5.3h-2.6v30.4h2.6v5.3H371v-5.3h2.6V26.5H371v-5.3z" fill="#000000" data-color="1"/>
        <path d="M169.2 39.3h-4.8c-.2 0-.4-.2-.4-.4V18.4c0-.2.2-.4.4-.4h4.8c.2 0 .4.2.4.4v20.5c0 .2-.2.4-.4.4z" fill="#00a0e9" data-color="2"/>
        <path d="M179.1 28.7c-1.3-1.3-2.7-2.3-4.2-3.1-.2-.1-.5.1-.5.3v5.3c.2.2.5.4.7.6 2.7 2.7 4.1 6.9 4.1 12.7s-1.4 10-4.1 12.7c-2.4 2.4-5.1 3.6-8.1 3.6s-5.7-1.2-8.1-3.6c-2.7-2.7-4.1-6.9-4.1-12.7s1.4-10 4.1-12.7c.2-.2.4-.4.7-.6v-5.3c0-.3-.3-.4-.5-.3-1.5.8-2.9 1.8-4.2 3.1-3.8 3.8-5.7 9.1-5.7 15.8s1.9 12 5.7 15.8c3.3 3.3 7.4 5 12.2 5 4.8 0 8.9-1.7 12.2-5 3.8-3.8 5.7-9.1 5.7-15.8s-2.1-12-5.9-15.8z" fill="#00a0e9" data-color="2"/>
        <path d="M83.6 40.2c1.8-1 13.9-8.7 15.5-9.8 0-.5-10.6 5.7-10.7 5.2-.8-6-6-10.5-12.1-10.5-.9 0-1.8.1-2.6.3A22.29 22.29 0 0 0 54.2 14c-10.7 0-19.6 7.5-21.8 17.4-9.3.6-16.8 10.4-16.8 19.9 0 1-3.8.4-11.4.5 20.4 3.7 54.2 1.8 79.4-11.6z" fill="#00a0e9" data-color="2"/>
        <path d="M87.4 45c.8-1.6 1.2-3.4 1.2-5.2v-.6c-2.1 1.7-5.8 4.1-14.2 7.3-16.3 6.2-34.7 9.8-58.4 8.7 1.4 8.3 8.6 14.2 17.3 14.3h50.2C90.4 69.5 96 63.9 96 57c0-5.7-3.6-10.4-8.6-12z" fill="#00244e" data-color="3"/>
    </g>
</svg>
